<svg width="47" height="48" viewBox="0 0 47 48" fill="none" xmlns="http://www.w3.org/2000/svg">
      <path d="M11.3068 39.4545C9.48864 39.4545 7.88352 38.9953 6.49148 38.0767C5.09943 37.1487 4.01042 35.8419 3.22443 34.1562C2.43845 32.4612 2.04545 30.4583 2.04545 28.1477C2.04545 25.8561 2.43845 23.8674 3.22443 22.1818C4.01042 20.4962 5.10417 19.1941 6.50568 18.2756C7.9072 17.357 9.52652 16.8977 11.3636 16.8977C12.7841 16.8977 13.9063 17.1345 14.7301 17.608C15.5634 18.072 16.1979 18.6023 16.6335 19.1989C17.0786 19.786 17.4242 20.2689 17.6705 20.6477H17.9545V9.90909H21.3068V39H18.0682V35.6477H17.6705C17.4242 36.0455 17.0739 36.5473 16.6193 37.1534C16.1648 37.75 15.5161 38.285 14.6733 38.7585C13.8305 39.2225 12.7083 39.4545 11.3068 39.4545ZM11.7614 36.4432C13.1061 36.4432 14.2424 36.0928 15.1705 35.392C16.0985 34.6818 16.804 33.7017 17.2869 32.4517C17.7699 31.1922 18.0114 29.7386 18.0114 28.0909C18.0114 26.4621 17.7746 25.0369 17.3011 23.8153C16.8277 22.5843 16.1269 21.6278 15.1989 20.946C14.2708 20.2547 13.125 19.9091 11.7614 19.9091C10.3409 19.9091 9.1572 20.2737 8.21023 21.0028C7.27273 21.7225 6.56723 22.7027 6.09375 23.9432C5.62973 25.1742 5.39773 26.5568 5.39773 28.0909C5.39773 29.6439 5.63447 31.0549 6.10795 32.3239C6.59091 33.5833 7.30114 34.5871 8.23864 35.3352C9.18561 36.0739 10.3598 36.4432 11.7614 36.4432ZM30.4119 17.1818L35.6392 26.1023L40.8665 17.1818H44.7301L37.6847 28.0909L44.7301 39H40.8665L35.6392 30.5341L30.4119 39H26.5483L33.4801 28.0909L26.5483 17.1818H30.4119Z" fill="#FFA945"/>
</svg>